<svg xmlns="http://www.w3.org/2000/svg" width="480" height="480" viewBox="0 0 480 480" font-family="'DejaVu Sans','Segoe UI Symbol','Noto Sans Symbols',sans-serif">
<rect x="0" y="0" width="60" height="60" fill="#eeeed2"/>
<text x="30" y="34.8" text-anchor="middle" dominant-baseline="middle" font-size="46.800000000000004" fill="#000000" stroke="#ffffff" stroke-width="1.2">♜</text>
<rect x="60" y="0" width="60" height="60" fill="#769656"/>
<text x="90" y="34.8" text-anchor="middle" dominant-baseline="middle" font-size="46.800000000000004" fill="#000000" stroke="#ffffff" stroke-width="1.2">♞</text>
<rect x="120" y="0" width="60" height="60" fill="#eeeed2"/>
<text x="150" y="34.8" text-anchor="middle" dominant-baseline="middle" font-size="46.800000000000004" fill="#000000" stroke="#ffffff" stroke-width="1.2">♝</text>
<rect x="180" y="0" width="60" height="60" fill="#769656"/>
<text x="210" y="34.8" text-anchor="middle" dominant-baseline="middle" font-size="46.800000000000004" fill="#000000" stroke="#ffffff" stroke-width="1.2">♛</text>
<rect x="240" y="0" width="60" height="60" fill="#eeeed2"/>
<text x="270" y="34.8" text-anchor="middle" dominant-baseline="middle" font-size="46.800000000000004" fill="#000000" stroke="#ffffff" stroke-width="1.2">♚</text>
<rect x="300" y="0" width="60" height="60" fill="#769656"/>
<text x="330" y="34.8" text-anchor="middle" dominant-baseline="middle" font-size="46.800000000000004" fill="#000000" stroke="#ffffff" stroke-width="1.2">♝</text>
<rect x="360" y="0" width="60" height="60" fill="#eeeed2"/>
<text x="390" y="34.8" text-anchor="middle" dominant-baseline="middle" font-size="46.800000000000004" fill="#000000" stroke="#ffffff" stroke-width="1.2">♞</text>
<rect x="420" y="0" width="60" height="60" fill="#769656"/>
<text x="450" y="34.8" text-anchor="middle" dominant-baseline="middle" font-size="46.800000000000004" fill="#000000" stroke="#ffffff" stroke-width="1.2">♜</text>
<rect x="0" y="60" width="60" height="60" fill="#769656"/>
<text x="30" y="94.8" text-anchor="middle" dominant-baseline="middle" font-size="46.800000000000004" fill="#000000" stroke="#ffffff" stroke-width="1.2">♟</text>
<rect x="60" y="60" width="60" height="60" fill="#eeeed2"/>
<text x="90" y="94.8" text-anchor="middle" dominant-baseline="middle" font-size="46.800000000000004" fill="#000000" stroke="#ffffff" stroke-width="1.2">♟</text>
<rect x="120" y="60" width="60" height="60" fill="#769656"/>
<text x="150" y="94.8" text-anchor="middle" dominant-baseline="middle" font-size="46.800000000000004" fill="#000000" stroke="#ffffff" stroke-width="1.2">♟</text>
<rect x="180" y="60" width="60" height="60" fill="#eeeed2"/>
<text x="210" y="94.8" text-anchor="middle" dominant-baseline="middle" font-size="46.800000000000004" fill="#000000" stroke="#ffffff" stroke-width="1.2">♟</text>
<rect x="240" y="60" width="60" height="60" fill="#769656"/>
<text x="270" y="94.8" text-anchor="middle" dominant-baseline="middle" font-size="46.800000000000004" fill="#000000" stroke="#ffffff" stroke-width="1.2">♟</text>
<rect x="300" y="60" width="60" height="60" fill="#eeeed2"/>
<text x="330" y="94.8" text-anchor="middle" dominant-baseline="middle" font-size="46.800000000000004" fill="#000000" stroke="#ffffff" stroke-width="1.2">♟</text>
<rect x="360" y="60" width="60" height="60" fill="#769656"/>
<text x="390" y="94.8" text-anchor="middle" dominant-baseline="middle" font-size="46.800000000000004" fill="#000000" stroke="#ffffff" stroke-width="1.2">♟</text>
<rect x="420" y="60" width="60" height="60" fill="#eeeed2"/>
<text x="450" y="94.8" text-anchor="middle" dominant-baseline="middle" font-size="46.800000000000004" fill="#000000" stroke="#ffffff" stroke-width="1.2">♟</text>
<rect x="0" y="120" width="60" height="60" fill="#eeeed2"/>
<rect x="60" y="120" width="60" height="60" fill="#769656"/>
<rect x="120" y="120" width="60" height="60" fill="#eeeed2"/>
<rect x="180" y="120" width="60" height="60" fill="#769656"/>
<rect x="240" y="120" width="60" height="60" fill="#eeeed2"/>
<rect x="300" y="120" width="60" height="60" fill="#769656"/>
<rect x="360" y="120" width="60" height="60" fill="#eeeed2"/>
<rect x="420" y="120" width="60" height="60" fill="#769656"/>
<rect x="0" y="180" width="60" height="60" fill="#769656"/>
<rect x="60" y="180" width="60" height="60" fill="#eeeed2"/>
<rect x="120" y="180" width="60" height="60" fill="#769656"/>
<rect x="180" y="180" width="60" height="60" fill="#eeeed2"/>
<rect x="240" y="180" width="60" height="60" fill="#769656"/>
<rect x="300" y="180" width="60" height="60" fill="#eeeed2"/>
<rect x="360" y="180" width="60" height="60" fill="#769656"/>
<rect x="420" y="180" width="60" height="60" fill="#eeeed2"/>
<rect x="0" y="240" width="60" height="60" fill="#eeeed2"/>
<rect x="60" y="240" width="60" height="60" fill="#769656"/>
<rect x="120" y="240" width="60" height="60" fill="#eeeed2"/>
<rect x="180" y="240" width="60" height="60" fill="#769656"/>
<rect x="240" y="240" width="60" height="60" fill="#eeeed2"/>
<rect x="300" y="240" width="60" height="60" fill="#769656"/>
<rect x="360" y="240" width="60" height="60" fill="#eeeed2"/>
<rect x="420" y="240" width="60" height="60" fill="#769656"/>
<rect x="0" y="300" width="60" height="60" fill="#769656"/>
<rect x="60" y="300" width="60" height="60" fill="#eeeed2"/>
<rect x="120" y="300" width="60" height="60" fill="#769656"/>
<rect x="180" y="300" width="60" height="60" fill="#eeeed2"/>
<rect x="240" y="300" width="60" height="60" fill="#769656"/>
<rect x="300" y="300" width="60" height="60" fill="#eeeed2"/>
<rect x="360" y="300" width="60" height="60" fill="#769656"/>
<rect x="420" y="300" width="60" height="60" fill="#eeeed2"/>
<rect x="0" y="360" width="60" height="60" fill="#eeeed2"/>
<text x="30" y="394.8" text-anchor="middle" dominant-baseline="middle" font-size="46.800000000000004" fill="#ffffff" stroke="#000000" stroke-width="1.2">♙</text>
<rect x="60" y="360" width="60" height="60" fill="#769656"/>
<text x="90" y="394.8" text-anchor="middle" dominant-baseline="middle" font-size="46.800000000000004" fill="#ffffff" stroke="#000000" stroke-width="1.2">♙</text>
<rect x="120" y="360" width="60" height="60" fill="#eeeed2"/>
<text x="150" y="394.8" text-anchor="middle" dominant-baseline="middle" font-size="46.800000000000004" fill="#ffffff" stroke="#000000" stroke-width="1.2">♙</text>
<rect x="180" y="360" width="60" height="60" fill="#769656"/>
<text x="210" y="394.8" text-anchor="middle" dominant-baseline="middle" font-size="46.800000000000004" fill="#ffffff" stroke="#000000" stroke-width="1.2">♙</text>
<rect x="240" y="360" width="60" height="60" fill="#eeeed2"/>
<text x="270" y="394.8" text-anchor="middle" dominant-baseline="middle" font-size="46.800000000000004" fill="#ffffff" stroke="#000000" stroke-width="1.2">♙</text>
<rect x="300" y="360" width="60" height="60" fill="#769656"/>
<text x="330" y="394.8" text-anchor="middle" dominant-baseline="middle" font-size="46.800000000000004" fill="#ffffff" stroke="#000000" stroke-width="1.2">♙</text>
<rect x="360" y="360" width="60" height="60" fill="#eeeed2"/>
<text x="390" y="394.8" text-anchor="middle" dominant-baseline="middle" font-size="46.800000000000004" fill="#ffffff" stroke="#000000" stroke-width="1.2">♙</text>
<rect x="420" y="360" width="60" height="60" fill="#769656"/>
<text x="450" y="394.8" text-anchor="middle" dominant-baseline="middle" font-size="46.800000000000004" fill="#ffffff" stroke="#000000" stroke-width="1.2">♙</text>
<rect x="0" y="420" width="60" height="60" fill="#769656"/>
<text x="30" y="454.8" text-anchor="middle" dominant-baseline="middle" font-size="46.800000000000004" fill="#ffffff" stroke="#000000" stroke-width="1.2">♖</text>
<rect x="60" y="420" width="60" height="60" fill="#eeeed2"/>
<text x="90" y="454.8" text-anchor="middle" dominant-baseline="middle" font-size="46.800000000000004" fill="#ffffff" stroke="#000000" stroke-width="1.2">♘</text>
<rect x="120" y="420" width="60" height="60" fill="#769656"/>
<text x="150" y="454.8" text-anchor="middle" dominant-baseline="middle" font-size="46.800000000000004" fill="#ffffff" stroke="#000000" stroke-width="1.2">♗</text>
<rect x="180" y="420" width="60" height="60" fill="#eeeed2"/>
<text x="210" y="454.8" text-anchor="middle" dominant-baseline="middle" font-size="46.800000000000004" fill="#ffffff" stroke="#000000" stroke-width="1.2">♕</text>
<rect x="240" y="420" width="60" height="60" fill="#769656"/>
<text x="270" y="454.8" text-anchor="middle" dominant-baseline="middle" font-size="46.800000000000004" fill="#ffffff" stroke="#000000" stroke-width="1.2">♔</text>
<rect x="300" y="420" width="60" height="60" fill="#eeeed2"/>
<text x="330" y="454.8" text-anchor="middle" dominant-baseline="middle" font-size="46.800000000000004" fill="#ffffff" stroke="#000000" stroke-width="1.2">♗</text>
<rect x="360" y="420" width="60" height="60" fill="#769656"/>
<text x="390" y="454.8" text-anchor="middle" dominant-baseline="middle" font-size="46.800000000000004" fill="#ffffff" stroke="#000000" stroke-width="1.2">♘</text>
<rect x="420" y="420" width="60" height="60" fill="#eeeed2"/>
<text x="450" y="454.8" text-anchor="middle" dominant-baseline="middle" font-size="46.800000000000004" fill="#ffffff" stroke="#000000" stroke-width="1.2">♖</text>
<text x="4" y="476" font-size="14" fill="#586c41" font-weight="600">a</text>
<text x="64" y="476" font-size="14" fill="#586c41" font-weight="600">b</text>
<text x="124" y="476" font-size="14" fill="#586c41" font-weight="600">c</text>
<text x="184" y="476" font-size="14" fill="#586c41" font-weight="600">d</text>
<text x="244" y="476" font-size="14" fill="#586c41" font-weight="600">e</text>
<text x="304" y="476" font-size="14" fill="#586c41" font-weight="600">f</text>
<text x="364" y="476" font-size="14" fill="#586c41" font-weight="600">g</text>
<text x="424" y="476" font-size="14" fill="#586c41" font-weight="600">h</text>
<text x="466" y="18" font-size="14" fill="#586c41" font-weight="600">8</text>
<text x="466" y="78" font-size="14" fill="#586c41" font-weight="600">7</text>
<text x="466" y="138" font-size="14" fill="#586c41" font-weight="600">6</text>
<text x="466" y="198" font-size="14" fill="#586c41" font-weight="600">5</text>
<text x="466" y="258" font-size="14" fill="#586c41" font-weight="600">4</text>
<text x="466" y="318" font-size="14" fill="#586c41" font-weight="600">3</text>
<text x="466" y="378" font-size="14" fill="#586c41" font-weight="600">2</text>
<text x="466" y="438" font-size="14" fill="#586c41" font-weight="600">1</text>
</svg>